<mxfile host="app.diagrams.net" modified="2024-06-06T13:26:01.252Z" agent="Mozilla/5.0 (Windows NT 10.0; Win64; x64) AppleWebKit/537.36 (KHTML, like Gecko) Chrome/125.0.0.0 Safari/537.36" version="24.4.9" etag="7lWs1q9wwNkcY7_f7yXm" type="github">
  <diagram name="Page-1" id="3Ahu8iKfU6YvcPa8HP41">
    <mxGraphModel>
      <root>
        <mxCell id="0" />
        <mxCell id="1" parent="0" />
      </root>
    </mxGraphModel>
  </diagram>
</mxfile>
